<svg width="48" height="48" viewBox="0 0 48 48" fill="none" xmlns="http://www.w3.org/2000/svg">
<rect x="0.665649" y="0.4823" width="47.0354" height="47.0354" rx="23.5177" fill="#211F20"/>
<rect x="10.902" y="10.7187" width="26.5627" height="26.5627" rx="13.2813" fill="#FBFBFB"/>
<path d="M15.6587 17.4183C15.6587 16.7074 16.3186 16.1805 17.0118 16.3377L23.068 17.711C23.4857 17.8057 23.7672 18.1969 23.7243 18.623C23.6791 19.0713 23.2913 19.406 22.8413 19.3852L20.7387 19.2878L16.5632 18.5075C16.0388 18.4095 15.6587 17.9518 15.6587 17.4183Z" fill="#211F20"/>
<path d="M15.9932 22.3238C15.7988 21.8038 15.9987 21.2189 16.4708 20.9267L19.5212 19.0388C19.9219 18.7908 20.3526 18.595 20.8029 18.4561L22.6814 17.8768C23.5318 17.6584 24.0322 18.7999 23.2954 19.2773L17.716 22.8928C17.0919 23.2972 16.2537 23.0204 15.9932 22.3238Z" fill="#211F20"/>
<path d="M15.6587 17.4183C15.6587 16.7074 16.3186 16.1805 17.0118 16.3377L23.068 17.711C23.4857 17.8057 23.7672 18.1969 23.7243 18.623C23.6791 19.0713 23.2913 19.406 22.8413 19.3852L20.7387 19.2878L16.5632 18.5075C16.0388 18.4095 15.6587 17.9518 15.6587 17.4183Z" fill="#211F20"/>
<path d="M15.9932 22.3238C15.7988 21.8038 15.9987 21.2189 16.4708 20.9267L19.5212 19.0388C19.9219 18.7908 20.3526 18.595 20.8029 18.4561L22.6814 17.8768C23.5318 17.6584 24.0322 18.7999 23.2954 19.2773L17.716 22.8928C17.0919 23.2972 16.2537 23.0204 15.9932 22.3238Z" fill="#211F20"/>
<path d="M33.0879 17.4183C33.0879 16.7074 32.428 16.1805 31.7348 16.3377L25.6785 17.711C25.2609 17.8057 24.9794 18.1969 25.0223 18.623C25.0675 19.0713 25.4553 19.406 25.9053 19.3852L28.0079 19.2878L32.1833 18.5075C32.7077 18.4095 33.0879 17.9518 33.0879 17.4183Z" fill="#211F20"/>
<path d="M32.7534 22.3238C32.9478 21.8038 32.7479 21.2189 32.2758 20.9267L29.2253 19.0388C28.8247 18.7908 28.394 18.595 27.9437 18.4561L26.0652 17.8768C25.2148 17.6584 24.7144 18.7999 25.4512 19.2773L31.0306 22.8928C31.6547 23.2972 32.4928 23.0204 32.7534 22.3238Z" fill="#211F20"/>
<path d="M30.2333 25.3683H18.2297C16.9196 25.3683 17.3406 26.1984 17.5625 26.8956C18.0558 28.4458 21.3704 30.3289 24.7182 30.3289C28.3765 30.3289 31.1637 28.4662 31.5377 26.8956C31.8368 25.6392 31.4109 25.3683 30.2333 25.3683Z" fill="#211F20" stroke="#211F20"/>
</svg>
