<svg width="893" height="709" viewBox="0 0 893 709" fill="none" xmlns="http://www.w3.org/2000/svg">
<path d="M101.471 211.643H66.993V39.2535H101.471V108.209H170.427V39.2535H204.904V211.643H170.427V142.687H101.471V211.643ZM377.294 177.165V211.643H239.382V39.2535H377.294V73.7314H273.86V108.209H342.816V142.687H273.86V177.165H377.294ZM515.205 177.165V211.643H411.772V39.2535H446.25V177.165H515.205ZM653.117 177.165V211.643H549.683V39.2535H584.161V177.165H653.117ZM722.072 73.7314V39.2535H791.028V73.7314H722.072ZM722.072 177.165H687.595V73.7314H722.072V177.165ZM825.506 177.165H791.028V73.7314H825.506V177.165ZM791.028 177.165V211.643H722.072V177.165H791.028Z" fill="#0736FE"/>
<path d="M116.555 477.374H86.3867V386.87H116.555V477.374ZM146.723 477.374V386.87H176.891V477.374H146.723ZM207.059 477.374V386.87H237.227V477.374H207.059ZM146.723 537.711H116.555V477.374H146.723V537.711ZM207.059 537.711H176.891V477.374H207.059V537.711ZM297.564 417.038V386.87H357.9V417.038H297.564ZM297.564 507.543H267.396V417.038H297.564V507.543ZM388.068 507.543H357.9V417.038H388.068V507.543ZM357.9 507.543V537.711H297.564V507.543H357.9ZM448.404 537.711H418.236V386.87H508.741V417.038H448.404V447.206H508.741V477.374H448.404V537.711ZM538.909 447.206H508.741V417.038H538.909V447.206ZM538.909 537.711H508.741V477.374H538.909V537.711ZM659.581 507.543V537.711H569.077V386.87H599.245V507.543H659.581ZM719.918 507.543H780.254V537.711H689.749V386.87H780.254V417.038H719.918V507.543ZM810.422 507.543H780.254V417.038H810.422V507.543Z" fill="#0736FE"/>
<mask id="path-3-outside-1_65_2" maskUnits="userSpaceOnUse" x="140.139" y="166.446" width="638.367" height="286.237" fill="black">
<rect fill="white" x="140.139" y="166.446" width="638.367" height="286.237"/>
<path d="M452.115 441.748C437.818 441.188 428.067 437.453 422.86 430.543C417.8 423.819 416.713 414.668 419.6 403.088C421.509 395.431 425.643 386.186 432.001 375.354C438.598 364.335 446.44 352.569 455.527 340.056C464.66 327.356 474.082 314.656 483.793 301.956C493.743 289.069 503.168 276.743 512.068 264.977C520.969 253.211 528.412 242.659 534.397 233.32C540.575 223.982 544.316 216.699 545.62 211.469C546.691 207.174 545.727 204.092 542.728 202.224C539.775 200.17 536.374 199.143 532.525 199.143C525.98 199.143 518.297 201.01 509.474 204.746C500.89 208.294 491.81 213.057 482.236 219.033C472.901 224.823 463.715 231.173 454.678 238.083C445.879 244.806 437.994 251.343 431.021 257.693C418.318 269.272 405.839 281.879 393.586 295.513C381.332 309.146 369.683 323.06 358.637 337.254C347.638 351.262 337.379 364.615 327.861 377.315C318.535 390.015 310.279 401.127 303.092 410.652C301.093 413.267 298.294 415.228 294.696 416.535C291.244 418.029 288.074 418.777 285.187 418.777C282.684 418.777 280.707 418.216 279.254 417.096C277.754 416.162 277.549 414.668 278.639 412.613C284.125 406.824 290.75 399.166 298.514 389.641C306.325 379.93 314.511 369.098 323.073 357.145C331.828 345.192 340.507 332.772 349.109 319.885C357.951 306.812 366.025 294.112 373.333 281.786C380.88 269.272 387.209 257.786 392.319 247.328C397.621 236.869 401.157 228.091 402.926 220.994C406.186 207.921 405.315 198.676 400.313 193.26C395.359 187.657 387.78 184.855 377.579 184.855C367.377 184.855 342.814 188.404 329.477 193.26C316.187 197.929 307.3 202.318 293.417 210.909C279.58 219.313 266.333 229.212 253.676 240.604C241.066 251.81 230.124 264.043 220.851 277.303C211.817 290.377 205.577 303.824 202.131 317.644C199.104 329.784 199.573 339.869 203.538 347.9C207.695 355.931 215.74 359.946 227.674 359.946C237.876 359.946 247.723 357.892 257.217 353.783C266.903 349.674 275.641 344.351 283.43 337.815C291.411 331.278 298.019 324.461 303.254 317.364C308.488 310.267 311.85 303.73 313.34 297.754C314.69 292.338 314.268 287.855 312.073 284.307C310.071 280.758 305.99 278.984 299.83 278.984C297.905 278.984 296.342 279.078 295.141 279.264C293.939 279.451 292.857 279.544 291.895 279.544C290.548 279.544 290.037 278.891 290.363 277.583C290.549 276.836 291.074 276.276 291.937 275.903C292.8 275.529 293.447 275.249 293.879 275.062C296.567 274.315 298.993 273.848 301.157 273.661C303.321 273.475 305.366 273.381 307.29 273.381C315.182 273.381 320.444 275.436 323.077 279.544C325.902 283.653 326.523 288.883 324.94 295.233C323.264 301.956 319.38 309.427 313.289 317.644C307.437 325.675 299.946 333.332 290.816 340.616C281.924 347.713 271.892 353.596 260.719 358.265C249.546 362.934 237.896 365.269 225.77 365.269C216.531 365.269 208.405 363.121 201.391 358.825C194.425 354.343 189.464 347.993 186.508 339.776C183.745 331.558 183.807 321.66 186.694 310.08C189.674 298.127 195.395 285.988 203.858 273.661C212.368 261.148 222.974 249.102 235.678 237.523C248.381 225.943 262.322 215.578 277.5 206.427C292.87 197.275 308.81 190.085 325.32 184.855C341.877 179.439 361.972 177.119 378.333 177.119C386.995 177.119 398.971 179.346 405.347 182.334C411.771 185.136 416.285 189.805 418.89 196.341C421.687 202.878 421.712 211.656 418.964 222.675C417.707 227.718 415.351 233.694 411.896 240.604C408.679 247.328 404.793 254.425 400.235 261.895C395.87 269.366 391.36 276.65 386.703 283.747C382.285 290.657 378.054 296.82 374.009 302.236C370.156 307.652 367.23 311.668 365.231 314.282C370.092 308.68 376.03 302.236 383.043 294.952C390.102 287.482 397.451 280.011 405.088 272.541C412.771 264.883 419.98 257.973 426.714 251.81C434.643 244.713 443.315 237.336 452.731 229.679C462.147 222.021 471.904 214.924 482.003 208.388C492.341 201.664 502.642 196.248 512.906 192.139C523.362 188.03 533.402 185.976 543.026 185.976C550.725 185.976 556.877 187.937 561.481 191.859C566.324 195.594 567.488 202.505 564.973 212.59C562.971 220.621 558.715 229.585 552.205 239.484C545.934 249.195 538.322 259.654 529.368 270.86C520.415 282.066 511.007 293.552 501.144 305.318C491.474 317.084 482.045 329.037 472.859 341.176C463.72 353.129 455.685 364.895 448.756 376.475C442.019 388.054 437.324 399.166 434.67 409.812C432.761 417.469 432.81 423.446 434.819 427.741C436.781 432.224 440.649 434.465 446.424 434.465C450.658 434.465 455.677 433.251 461.479 430.823C463.444 429.889 465.147 429.235 466.588 428.862C468.174 428.675 469.352 428.582 470.122 428.582C473.009 428.582 474.197 429.609 473.685 431.663C473.172 433.718 470.881 435.959 466.811 438.387C462.741 440.815 457.842 441.935 452.115 441.748Z"/>
<path d="M509.223 401.688C502.101 401.688 496.212 399.447 491.555 394.964C487.091 390.482 485.999 383.665 488.281 374.514C490.19 366.856 493.948 358.732 499.555 350.141C505.354 341.55 512.072 333.519 519.709 326.049C527.585 318.391 535.666 312.228 543.952 307.559C552.477 302.703 560.397 300.275 567.711 300.275C571.368 300.275 574.673 301.302 577.625 303.357C580.578 305.411 581.425 308.96 580.168 314.002C579.004 318.671 575.895 323.807 570.841 329.41C565.787 335.013 559.286 340.243 551.338 345.098C547.939 347.153 543.793 349.114 538.9 350.981C534.007 352.849 529.185 354.437 524.432 355.744C519.725 356.864 515.928 357.425 513.041 357.425C511.52 359.666 509.812 362.654 507.919 366.389C506.217 370.125 504.878 373.953 503.9 377.875C502.736 382.544 502.65 386.747 503.644 390.482C504.638 394.217 507.733 396.085 512.93 396.085C519.282 396.085 525.595 394.311 531.869 390.762C538.336 387.214 544.361 382.731 549.946 377.315C555.724 371.899 560.851 366.389 565.327 360.787C569.804 355.184 573.397 350.421 576.108 346.499C578.417 346.499 579.363 347.34 578.944 349.02C575.138 354.25 570.83 359.946 566.021 366.109C561.405 372.272 556.208 378.062 550.431 383.478C544.892 388.708 538.601 393.097 531.557 396.645C524.752 400.007 517.307 401.688 509.223 401.688ZM516.319 352.382C519.014 352.382 523.77 351.448 530.588 349.581C537.452 347.526 544.018 344.351 550.286 340.056C556.361 335.76 561.375 331.091 565.327 326.049C569.325 320.819 571.767 316.43 572.652 312.882C573.676 308.773 572.649 306.719 569.569 306.719C567.259 306.719 563.711 308.213 558.924 311.201C554.137 314.189 547.875 319.232 540.138 326.329C535.364 330.811 530.688 335.667 526.112 340.896C521.536 346.126 518.272 349.954 516.319 352.382Z"/>
<path d="M625.965 401.127C624.81 401.127 623.775 401.034 622.859 400.847C622.089 400.847 621.054 400.754 619.753 400.567C615.174 399.633 612.434 397.112 611.534 393.003C610.873 388.708 611.147 384.132 612.358 379.276C613.103 376.288 614.017 373.393 615.101 370.592C616.423 367.603 617.749 364.989 619.077 362.748C616.6 365.736 613.479 369.378 609.713 373.673C605.994 377.782 601.89 381.891 597.4 386C592.911 390.108 588.393 393.563 583.845 396.365C579.297 399.166 575.001 400.567 570.959 400.567C566.917 400.567 563.443 399.447 560.537 397.205C557.631 394.964 556.21 391.789 556.272 387.68C556.312 386.747 556.329 385.906 556.323 385.159C556.556 384.225 556.765 383.385 556.951 382.638C558.162 377.782 560.744 372.833 564.696 367.79C568.648 362.748 573.383 356.491 578.903 349.02C577.941 349.02 577.098 348.927 576.374 348.74C575.844 348.554 575.741 347.806 576.067 346.499C582.916 336.787 588.625 328.943 593.194 322.967C598.003 316.804 601.504 312.415 603.695 309.8C607.222 305.691 611.68 303.637 617.07 303.637H634.97C631.093 306.065 627.434 308.773 623.994 311.761C620.794 314.563 616.314 319.792 610.555 327.449C610.555 327.449 609.555 328.757 607.556 331.371C605.557 333.986 603.01 337.254 599.914 341.176C597.012 345.098 593.99 349.114 590.848 353.223C587.899 357.331 585.378 360.88 583.285 363.868C580.336 367.977 577.938 371.806 576.091 375.354C574.244 378.903 572.994 381.984 572.342 384.599C570.712 391.136 572.111 394.404 576.538 394.404C579.618 394.404 583.548 392.536 588.329 388.801C593.781 384.692 599.724 378.996 606.16 371.712C612.834 364.242 619.41 356.398 625.886 348.18C632.361 339.962 638.193 332.398 643.381 325.488C648.615 318.391 652.517 313.162 655.088 309.8C656.562 307.746 658.186 306.252 659.959 305.318C661.97 304.197 664.516 303.637 667.596 303.637H685.208C683.774 304.757 681.739 305.971 679.103 307.279C676.66 308.586 673.96 310.921 671.005 314.282C667.192 318.765 663.739 322.967 660.644 326.889C657.595 330.624 653.287 336.32 647.721 343.978C646.532 345.659 644.177 348.927 640.657 353.783C637.329 358.639 633.981 363.962 630.612 369.751C627.244 375.541 624.978 380.77 623.814 385.439C623.069 388.428 623.137 390.855 624.019 392.723C624.9 394.591 626.881 395.525 629.961 395.525C635.35 395.525 640.987 393.377 646.87 389.081C652.945 384.786 658.676 379.556 664.062 373.393C669.641 367.23 674.403 361.253 678.349 355.464C678.529 353.97 678.776 351.822 679.089 349.02C679.642 346.032 680.174 343.511 680.687 341.456C683.713 329.317 688.199 319.045 694.144 310.641C700.328 302.049 706.693 297.754 713.237 297.754C716.894 297.754 718.327 299.341 717.535 302.516C717.396 303.077 716.163 305.318 713.838 309.24C711.752 312.975 708.951 317.644 705.437 323.247C702.115 328.85 698.435 334.733 694.396 340.896C690.357 347.059 686.412 352.849 682.559 358.265C682.345 361.44 683.04 364.055 684.645 366.109C686.25 368.164 688.689 369.191 691.961 369.191C695.811 369.191 699.791 367.51 703.901 364.148C708.25 360.6 713.278 354.717 718.984 346.499C721.294 346.499 722.239 347.34 721.82 349.02C716.878 356.491 711.634 362.467 706.09 366.95C700.738 371.432 695.367 373.673 689.977 373.673C683.433 373.673 679.532 370.405 678.275 363.868C670.563 373.953 662.119 382.731 652.942 390.202C644.004 397.486 635.012 401.127 625.965 401.127Z"/>
</mask>
<path d="M452.115 441.748C437.818 441.188 428.067 437.453 422.86 430.543C417.8 423.819 416.713 414.668 419.6 403.088C421.509 395.431 425.643 386.186 432.001 375.354C438.598 364.335 446.44 352.569 455.527 340.056C464.66 327.356 474.082 314.656 483.793 301.956C493.743 289.069 503.168 276.743 512.068 264.977C520.969 253.211 528.412 242.659 534.397 233.32C540.575 223.982 544.316 216.699 545.62 211.469C546.691 207.174 545.727 204.092 542.728 202.224C539.775 200.17 536.374 199.143 532.525 199.143C525.98 199.143 518.297 201.01 509.474 204.746C500.89 208.294 491.81 213.057 482.236 219.033C472.901 224.823 463.715 231.173 454.678 238.083C445.879 244.806 437.994 251.343 431.021 257.693C418.318 269.272 405.839 281.879 393.586 295.513C381.332 309.146 369.683 323.06 358.637 337.254C347.638 351.262 337.379 364.615 327.861 377.315C318.535 390.015 310.279 401.127 303.092 410.652C301.093 413.267 298.294 415.228 294.696 416.535C291.244 418.029 288.074 418.777 285.187 418.777C282.684 418.777 280.707 418.216 279.254 417.096C277.754 416.162 277.549 414.668 278.639 412.613C284.125 406.824 290.75 399.166 298.514 389.641C306.325 379.93 314.511 369.098 323.073 357.145C331.828 345.192 340.507 332.772 349.109 319.885C357.951 306.812 366.025 294.112 373.333 281.786C380.88 269.272 387.209 257.786 392.319 247.328C397.621 236.869 401.157 228.091 402.926 220.994C406.186 207.921 405.315 198.676 400.313 193.26C395.359 187.657 387.78 184.855 377.579 184.855C367.377 184.855 342.814 188.404 329.477 193.26C316.187 197.929 307.3 202.318 293.417 210.909C279.58 219.313 266.333 229.212 253.676 240.604C241.066 251.81 230.124 264.043 220.851 277.303C211.817 290.377 205.577 303.824 202.131 317.644C199.104 329.784 199.573 339.869 203.538 347.9C207.695 355.931 215.74 359.946 227.674 359.946C237.876 359.946 247.723 357.892 257.217 353.783C266.903 349.674 275.641 344.351 283.43 337.815C291.411 331.278 298.019 324.461 303.254 317.364C308.488 310.267 311.85 303.73 313.34 297.754C314.69 292.338 314.268 287.855 312.073 284.307C310.071 280.758 305.99 278.984 299.83 278.984C297.905 278.984 296.342 279.078 295.141 279.264C293.939 279.451 292.857 279.544 291.895 279.544C290.548 279.544 290.037 278.891 290.363 277.583C290.549 276.836 291.074 276.276 291.937 275.903C292.8 275.529 293.447 275.249 293.879 275.062C296.567 274.315 298.993 273.848 301.157 273.661C303.321 273.475 305.366 273.381 307.29 273.381C315.182 273.381 320.444 275.436 323.077 279.544C325.902 283.653 326.523 288.883 324.94 295.233C323.264 301.956 319.38 309.427 313.289 317.644C307.437 325.675 299.946 333.332 290.816 340.616C281.924 347.713 271.892 353.596 260.719 358.265C249.546 362.934 237.896 365.269 225.77 365.269C216.531 365.269 208.405 363.121 201.391 358.825C194.425 354.343 189.464 347.993 186.508 339.776C183.745 331.558 183.807 321.66 186.694 310.08C189.674 298.127 195.395 285.988 203.858 273.661C212.368 261.148 222.974 249.102 235.678 237.523C248.381 225.943 262.322 215.578 277.5 206.427C292.87 197.275 308.81 190.085 325.32 184.855C341.877 179.439 361.972 177.119 378.333 177.119C386.995 177.119 398.971 179.346 405.347 182.334C411.771 185.136 416.285 189.805 418.89 196.341C421.687 202.878 421.712 211.656 418.964 222.675C417.707 227.718 415.351 233.694 411.896 240.604C408.679 247.328 404.793 254.425 400.235 261.895C395.87 269.366 391.36 276.65 386.703 283.747C382.285 290.657 378.054 296.82 374.009 302.236C370.156 307.652 367.23 311.668 365.231 314.282C370.092 308.68 376.03 302.236 383.043 294.952C390.102 287.482 397.451 280.011 405.088 272.541C412.771 264.883 419.98 257.973 426.714 251.81C434.643 244.713 443.315 237.336 452.731 229.679C462.147 222.021 471.904 214.924 482.003 208.388C492.341 201.664 502.642 196.248 512.906 192.139C523.362 188.03 533.402 185.976 543.026 185.976C550.725 185.976 556.877 187.937 561.481 191.859C566.324 195.594 567.488 202.505 564.973 212.59C562.971 220.621 558.715 229.585 552.205 239.484C545.934 249.195 538.322 259.654 529.368 270.86C520.415 282.066 511.007 293.552 501.144 305.318C491.474 317.084 482.045 329.037 472.859 341.176C463.72 353.129 455.685 364.895 448.756 376.475C442.019 388.054 437.324 399.166 434.67 409.812C432.761 417.469 432.81 423.446 434.819 427.741C436.781 432.224 440.649 434.465 446.424 434.465C450.658 434.465 455.677 433.251 461.479 430.823C463.444 429.889 465.147 429.235 466.588 428.862C468.174 428.675 469.352 428.582 470.122 428.582C473.009 428.582 474.197 429.609 473.685 431.663C473.172 433.718 470.881 435.959 466.811 438.387C462.741 440.815 457.842 441.935 452.115 441.748Z" fill="#FF4200"/>
<path d="M509.223 401.688C502.101 401.688 496.212 399.447 491.555 394.964C487.091 390.482 485.999 383.665 488.281 374.514C490.19 366.856 493.948 358.732 499.555 350.141C505.354 341.55 512.072 333.519 519.709 326.049C527.585 318.391 535.666 312.228 543.952 307.559C552.477 302.703 560.397 300.275 567.711 300.275C571.368 300.275 574.673 301.302 577.625 303.357C580.578 305.411 581.425 308.96 580.168 314.002C579.004 318.671 575.895 323.807 570.841 329.41C565.787 335.013 559.286 340.243 551.338 345.098C547.939 347.153 543.793 349.114 538.9 350.981C534.007 352.849 529.185 354.437 524.432 355.744C519.725 356.864 515.928 357.425 513.041 357.425C511.52 359.666 509.812 362.654 507.919 366.389C506.217 370.125 504.878 373.953 503.9 377.875C502.736 382.544 502.65 386.747 503.644 390.482C504.638 394.217 507.733 396.085 512.93 396.085C519.282 396.085 525.595 394.311 531.869 390.762C538.336 387.214 544.361 382.731 549.946 377.315C555.724 371.899 560.851 366.389 565.327 360.787C569.804 355.184 573.397 350.421 576.108 346.499C578.417 346.499 579.363 347.34 578.944 349.02C575.138 354.25 570.83 359.946 566.021 366.109C561.405 372.272 556.208 378.062 550.431 383.478C544.892 388.708 538.601 393.097 531.557 396.645C524.752 400.007 517.307 401.688 509.223 401.688ZM516.319 352.382C519.014 352.382 523.77 351.448 530.588 349.581C537.452 347.526 544.018 344.351 550.286 340.056C556.361 335.76 561.375 331.091 565.327 326.049C569.325 320.819 571.767 316.43 572.652 312.882C573.676 308.773 572.649 306.719 569.569 306.719C567.259 306.719 563.711 308.213 558.924 311.201C554.137 314.189 547.875 319.232 540.138 326.329C535.364 330.811 530.688 335.667 526.112 340.896C521.536 346.126 518.272 349.954 516.319 352.382Z" fill="#FF4200"/>
<path d="M625.965 401.127C624.81 401.127 623.775 401.034 622.859 400.847C622.089 400.847 621.054 400.754 619.753 400.567C615.174 399.633 612.434 397.112 611.534 393.003C610.873 388.708 611.147 384.132 612.358 379.276C613.103 376.288 614.017 373.393 615.101 370.592C616.423 367.603 617.749 364.989 619.077 362.748C616.6 365.736 613.479 369.378 609.713 373.673C605.994 377.782 601.89 381.891 597.4 386C592.911 390.108 588.393 393.563 583.845 396.365C579.297 399.166 575.001 400.567 570.959 400.567C566.917 400.567 563.443 399.447 560.537 397.205C557.631 394.964 556.21 391.789 556.272 387.68C556.312 386.747 556.329 385.906 556.323 385.159C556.556 384.225 556.765 383.385 556.951 382.638C558.162 377.782 560.744 372.833 564.696 367.79C568.648 362.748 573.383 356.491 578.903 349.02C577.941 349.02 577.098 348.927 576.374 348.74C575.844 348.554 575.741 347.806 576.067 346.499C582.916 336.787 588.625 328.943 593.194 322.967C598.003 316.804 601.504 312.415 603.695 309.8C607.222 305.691 611.68 303.637 617.07 303.637H634.97C631.093 306.065 627.434 308.773 623.994 311.761C620.794 314.563 616.314 319.792 610.555 327.449C610.555 327.449 609.555 328.757 607.556 331.371C605.557 333.986 603.01 337.254 599.914 341.176C597.012 345.098 593.99 349.114 590.848 353.223C587.899 357.331 585.378 360.88 583.285 363.868C580.336 367.977 577.938 371.806 576.091 375.354C574.244 378.903 572.994 381.984 572.342 384.599C570.712 391.136 572.111 394.404 576.538 394.404C579.618 394.404 583.548 392.536 588.329 388.801C593.781 384.692 599.724 378.996 606.16 371.712C612.834 364.242 619.41 356.398 625.886 348.18C632.361 339.962 638.193 332.398 643.381 325.488C648.615 318.391 652.517 313.162 655.088 309.8C656.562 307.746 658.186 306.252 659.959 305.318C661.97 304.197 664.516 303.637 667.596 303.637H685.208C683.774 304.757 681.739 305.971 679.103 307.279C676.66 308.586 673.96 310.921 671.005 314.282C667.192 318.765 663.739 322.967 660.644 326.889C657.595 330.624 653.287 336.32 647.721 343.978C646.532 345.659 644.177 348.927 640.657 353.783C637.329 358.639 633.981 363.962 630.612 369.751C627.244 375.541 624.978 380.77 623.814 385.439C623.069 388.428 623.137 390.855 624.019 392.723C624.9 394.591 626.881 395.525 629.961 395.525C635.35 395.525 640.987 393.377 646.87 389.081C652.945 384.786 658.676 379.556 664.062 373.393C669.641 367.23 674.403 361.253 678.349 355.464C678.529 353.97 678.776 351.822 679.089 349.02C679.642 346.032 680.174 343.511 680.687 341.456C683.713 329.317 688.199 319.045 694.144 310.641C700.328 302.049 706.693 297.754 713.237 297.754C716.894 297.754 718.327 299.341 717.535 302.516C717.396 303.077 716.163 305.318 713.838 309.24C711.752 312.975 708.951 317.644 705.437 323.247C702.115 328.85 698.435 334.733 694.396 340.896C690.357 347.059 686.412 352.849 682.559 358.265C682.345 361.44 683.04 364.055 684.645 366.109C686.25 368.164 688.689 369.191 691.961 369.191C695.811 369.191 699.791 367.51 703.901 364.148C708.25 360.6 713.278 354.717 718.984 346.499C721.294 346.499 722.239 347.34 721.82 349.02C716.878 356.491 711.634 362.467 706.09 366.95C700.738 371.432 695.367 373.673 689.977 373.673C683.433 373.673 679.532 370.405 678.275 363.868C670.563 373.953 662.119 382.731 652.942 390.202C644.004 397.486 635.012 401.127 625.965 401.127Z" fill="#FF4200"/>
<path d="M452.115 441.748C437.818 441.188 428.067 437.453 422.86 430.543C417.8 423.819 416.713 414.668 419.6 403.088C421.509 395.431 425.643 386.186 432.001 375.354C438.598 364.335 446.44 352.569 455.527 340.056C464.66 327.356 474.082 314.656 483.793 301.956C493.743 289.069 503.168 276.743 512.068 264.977C520.969 253.211 528.412 242.659 534.397 233.32C540.575 223.982 544.316 216.699 545.62 211.469C546.691 207.174 545.727 204.092 542.728 202.224C539.775 200.17 536.374 199.143 532.525 199.143C525.98 199.143 518.297 201.01 509.474 204.746C500.89 208.294 491.81 213.057 482.236 219.033C472.901 224.823 463.715 231.173 454.678 238.083C445.879 244.806 437.994 251.343 431.021 257.693C418.318 269.272 405.839 281.879 393.586 295.513C381.332 309.146 369.683 323.06 358.637 337.254C347.638 351.262 337.379 364.615 327.861 377.315C318.535 390.015 310.279 401.127 303.092 410.652C301.093 413.267 298.294 415.228 294.696 416.535C291.244 418.029 288.074 418.777 285.187 418.777C282.684 418.777 280.707 418.216 279.254 417.096C277.754 416.162 277.549 414.668 278.639 412.613C284.125 406.824 290.75 399.166 298.514 389.641C306.325 379.93 314.511 369.098 323.073 357.145C331.828 345.192 340.507 332.772 349.109 319.885C357.951 306.812 366.025 294.112 373.333 281.786C380.88 269.272 387.209 257.786 392.319 247.328C397.621 236.869 401.157 228.091 402.926 220.994C406.186 207.921 405.315 198.676 400.313 193.26C395.359 187.657 387.78 184.855 377.579 184.855C367.377 184.855 342.814 188.404 329.477 193.26C316.187 197.929 307.3 202.318 293.417 210.909C279.58 219.313 266.333 229.212 253.676 240.604C241.066 251.81 230.124 264.043 220.851 277.303C211.817 290.377 205.577 303.824 202.131 317.644C199.104 329.784 199.573 339.869 203.538 347.9C207.695 355.931 215.74 359.946 227.674 359.946C237.876 359.946 247.723 357.892 257.217 353.783C266.903 349.674 275.641 344.351 283.43 337.815C291.411 331.278 298.019 324.461 303.254 317.364C308.488 310.267 311.85 303.73 313.34 297.754C314.69 292.338 314.268 287.855 312.073 284.307C310.071 280.758 305.99 278.984 299.83 278.984C297.905 278.984 296.342 279.078 295.141 279.264C293.939 279.451 292.857 279.544 291.895 279.544C290.548 279.544 290.037 278.891 290.363 277.583C290.549 276.836 291.074 276.276 291.937 275.903C292.8 275.529 293.447 275.249 293.879 275.062C296.567 274.315 298.993 273.848 301.157 273.661C303.321 273.475 305.366 273.381 307.29 273.381C315.182 273.381 320.444 275.436 323.077 279.544C325.902 283.653 326.523 288.883 324.94 295.233C323.264 301.956 319.38 309.427 313.289 317.644C307.437 325.675 299.946 333.332 290.816 340.616C281.924 347.713 271.892 353.596 260.719 358.265C249.546 362.934 237.896 365.269 225.77 365.269C216.531 365.269 208.405 363.121 201.391 358.825C194.425 354.343 189.464 347.993 186.508 339.776C183.745 331.558 183.807 321.66 186.694 310.08C189.674 298.127 195.395 285.988 203.858 273.661C212.368 261.148 222.974 249.102 235.678 237.523C248.381 225.943 262.322 215.578 277.5 206.427C292.87 197.275 308.81 190.085 325.32 184.855C341.877 179.439 361.972 177.119 378.333 177.119C386.995 177.119 398.971 179.346 405.347 182.334C411.771 185.136 416.285 189.805 418.89 196.341C421.687 202.878 421.712 211.656 418.964 222.675C417.707 227.718 415.351 233.694 411.896 240.604C408.679 247.328 404.793 254.425 400.235 261.895C395.87 269.366 391.36 276.65 386.703 283.747C382.285 290.657 378.054 296.82 374.009 302.236C370.156 307.652 367.23 311.668 365.231 314.282C370.092 308.68 376.03 302.236 383.043 294.952C390.102 287.482 397.451 280.011 405.088 272.541C412.771 264.883 419.98 257.973 426.714 251.81C434.643 244.713 443.315 237.336 452.731 229.679C462.147 222.021 471.904 214.924 482.003 208.388C492.341 201.664 502.642 196.248 512.906 192.139C523.362 188.03 533.402 185.976 543.026 185.976C550.725 185.976 556.877 187.937 561.481 191.859C566.324 195.594 567.488 202.505 564.973 212.59C562.971 220.621 558.715 229.585 552.205 239.484C545.934 249.195 538.322 259.654 529.368 270.86C520.415 282.066 511.007 293.552 501.144 305.318C491.474 317.084 482.045 329.037 472.859 341.176C463.72 353.129 455.685 364.895 448.756 376.475C442.019 388.054 437.324 399.166 434.67 409.812C432.761 417.469 432.81 423.446 434.819 427.741C436.781 432.224 440.649 434.465 446.424 434.465C450.658 434.465 455.677 433.251 461.479 430.823C463.444 429.889 465.147 429.235 466.588 428.862C468.174 428.675 469.352 428.582 470.122 428.582C473.009 428.582 474.197 429.609 473.685 431.663C473.172 433.718 470.881 435.959 466.811 438.387C462.741 440.815 457.842 441.935 452.115 441.748Z" stroke="#FBFBFB" stroke-width="20.6867" mask="url(#path-3-outside-1_65_2)"/>
<path d="M509.223 401.688C502.101 401.688 496.212 399.447 491.555 394.964C487.091 390.482 485.999 383.665 488.281 374.514C490.19 366.856 493.948 358.732 499.555 350.141C505.354 341.55 512.072 333.519 519.709 326.049C527.585 318.391 535.666 312.228 543.952 307.559C552.477 302.703 560.397 300.275 567.711 300.275C571.368 300.275 574.673 301.302 577.625 303.357C580.578 305.411 581.425 308.96 580.168 314.002C579.004 318.671 575.895 323.807 570.841 329.41C565.787 335.013 559.286 340.243 551.338 345.098C547.939 347.153 543.793 349.114 538.9 350.981C534.007 352.849 529.185 354.437 524.432 355.744C519.725 356.864 515.928 357.425 513.041 357.425C511.52 359.666 509.812 362.654 507.919 366.389C506.217 370.125 504.878 373.953 503.9 377.875C502.736 382.544 502.65 386.747 503.644 390.482C504.638 394.217 507.733 396.085 512.93 396.085C519.282 396.085 525.595 394.311 531.869 390.762C538.336 387.214 544.361 382.731 549.946 377.315C555.724 371.899 560.851 366.389 565.327 360.787C569.804 355.184 573.397 350.421 576.108 346.499C578.417 346.499 579.363 347.34 578.944 349.02C575.138 354.25 570.83 359.946 566.021 366.109C561.405 372.272 556.208 378.062 550.431 383.478C544.892 388.708 538.601 393.097 531.557 396.645C524.752 400.007 517.307 401.688 509.223 401.688ZM516.319 352.382C519.014 352.382 523.77 351.448 530.588 349.581C537.452 347.526 544.018 344.351 550.286 340.056C556.361 335.76 561.375 331.091 565.327 326.049C569.325 320.819 571.767 316.43 572.652 312.882C573.676 308.773 572.649 306.719 569.569 306.719C567.259 306.719 563.711 308.213 558.924 311.201C554.137 314.189 547.875 319.232 540.138 326.329C535.364 330.811 530.688 335.667 526.112 340.896C521.536 346.126 518.272 349.954 516.319 352.382Z" stroke="#FBFBFB" stroke-width="20.6867" mask="url(#path-3-outside-1_65_2)"/>
<path d="M625.965 401.127C624.81 401.127 623.775 401.034 622.859 400.847C622.089 400.847 621.054 400.754 619.753 400.567C615.174 399.633 612.434 397.112 611.534 393.003C610.873 388.708 611.147 384.132 612.358 379.276C613.103 376.288 614.017 373.393 615.101 370.592C616.423 367.603 617.749 364.989 619.077 362.748C616.6 365.736 613.479 369.378 609.713 373.673C605.994 377.782 601.89 381.891 597.4 386C592.911 390.108 588.393 393.563 583.845 396.365C579.297 399.166 575.001 400.567 570.959 400.567C566.917 400.567 563.443 399.447 560.537 397.205C557.631 394.964 556.21 391.789 556.272 387.68C556.312 386.747 556.329 385.906 556.323 385.159C556.556 384.225 556.765 383.385 556.951 382.638C558.162 377.782 560.744 372.833 564.696 367.79C568.648 362.748 573.383 356.491 578.903 349.02C577.941 349.02 577.098 348.927 576.374 348.74C575.844 348.554 575.741 347.806 576.067 346.499C582.916 336.787 588.625 328.943 593.194 322.967C598.003 316.804 601.504 312.415 603.695 309.8C607.222 305.691 611.68 303.637 617.07 303.637H634.97C631.093 306.065 627.434 308.773 623.994 311.761C620.794 314.563 616.314 319.792 610.555 327.449C610.555 327.449 609.555 328.757 607.556 331.371C605.557 333.986 603.01 337.254 599.914 341.176C597.012 345.098 593.99 349.114 590.848 353.223C587.899 357.331 585.378 360.88 583.285 363.868C580.336 367.977 577.938 371.806 576.091 375.354C574.244 378.903 572.994 381.984 572.342 384.599C570.712 391.136 572.111 394.404 576.538 394.404C579.618 394.404 583.548 392.536 588.329 388.801C593.781 384.692 599.724 378.996 606.16 371.712C612.834 364.242 619.41 356.398 625.886 348.18C632.361 339.962 638.193 332.398 643.381 325.488C648.615 318.391 652.517 313.162 655.088 309.8C656.562 307.746 658.186 306.252 659.959 305.318C661.97 304.197 664.516 303.637 667.596 303.637H685.208C683.774 304.757 681.739 305.971 679.103 307.279C676.66 308.586 673.96 310.921 671.005 314.282C667.192 318.765 663.739 322.967 660.644 326.889C657.595 330.624 653.287 336.32 647.721 343.978C646.532 345.659 644.177 348.927 640.657 353.783C637.329 358.639 633.981 363.962 630.612 369.751C627.244 375.541 624.978 380.77 623.814 385.439C623.069 388.428 623.137 390.855 624.019 392.723C624.9 394.591 626.881 395.525 629.961 395.525C635.35 395.525 640.987 393.377 646.87 389.081C652.945 384.786 658.676 379.556 664.062 373.393C669.641 367.23 674.403 361.253 678.349 355.464C678.529 353.97 678.776 351.822 679.089 349.02C679.642 346.032 680.174 343.511 680.687 341.456C683.713 329.317 688.199 319.045 694.144 310.641C700.328 302.049 706.693 297.754 713.237 297.754C716.894 297.754 718.327 299.341 717.535 302.516C717.396 303.077 716.163 305.318 713.838 309.24C711.752 312.975 708.951 317.644 705.437 323.247C702.115 328.85 698.435 334.733 694.396 340.896C690.357 347.059 686.412 352.849 682.559 358.265C682.345 361.44 683.04 364.055 684.645 366.109C686.25 368.164 688.689 369.191 691.961 369.191C695.811 369.191 699.791 367.51 703.901 364.148C708.25 360.6 713.278 354.717 718.984 346.499C721.294 346.499 722.239 347.34 721.82 349.02C716.878 356.491 711.634 362.467 706.09 366.95C700.738 371.432 695.367 373.673 689.977 373.673C683.433 373.673 679.532 370.405 678.275 363.868C670.563 373.953 662.119 382.731 652.942 390.202C644.004 397.486 635.012 401.127 625.965 401.127Z" stroke="#FBFBFB" stroke-width="20.6867" mask="url(#path-3-outside-1_65_2)"/>
<path d="M303.392 210.638V230.091H338.257C342.704 230.091 363.69 231.607 373.627 232.365L387.775 216.196L383.48 190.932L341.541 194.721L303.392 210.638Z" fill="#FBFBFB"/>
<path d="M584.984 389.571L595.25 378.337L590.407 374.851C588.923 374.722 585.759 374.541 584.984 374.851C584.21 375.161 582.208 378.208 581.304 379.693V387.634L584.984 389.571Z" fill="#FBFBFB"/>
<path d="M411.872 396.899V373.437L433.447 368.853C432.727 370.381 431.073 374.3 430.21 377.752C429.132 382.067 423.738 387.73 422.929 389.079C422.12 390.427 419.423 399.327 418.345 400.675C417.482 401.754 417.086 401.124 416.996 400.675L411.872 396.899Z" fill="#FBFBFB"/>
<path d="M290.517 385.303L288.629 375.595C291.415 374.876 298.391 373.437 304.001 373.437C309.61 373.437 306.338 374.876 304.001 375.595C303.281 376.314 301.519 378.777 300.225 382.876C298.931 386.975 297.528 388.719 296.989 389.079L290.517 385.303Z" fill="#FBFBFB"/>
<path d="M755.021 597.226L755.021 708.419L727.016 708.419L727.016 597.226L755.021 597.226Z" fill="#211F20"/>
<path d="M838.209 708.419L727.016 708.419L727.016 680.415L838.209 680.415L838.209 708.419Z" fill="#211F20"/>
<path d="M854.597 600.64L746.818 708.419L727.016 688.617L834.795 580.838L854.597 600.64Z" fill="#211F20"/>
</svg>
