<svg width="63" height="63" viewBox="0 0 63 63" fill="none" xmlns="http://www.w3.org/2000/svg">
<path d="M49.7803 13.7518H13.7646C11.2886 13.7518 9.2627 15.7776 9.2627 18.2537V45.2654C9.2627 47.7415 11.2886 49.7674 13.7646 49.7674H49.7803C52.2563 49.7674 54.2822 47.7415 54.2822 45.2654V18.2537C54.2822 15.7776 52.2563 13.7518 49.7803 13.7518ZM48.8799 23.3184L34.1585 32.5249C32.6954 33.4478 30.8496 33.4478 29.3864 32.5249L14.665 23.3184C14.4393 23.1917 14.2417 23.0205 14.084 22.8152C13.9264 22.6099 13.8121 22.3748 13.7479 22.124C13.6838 21.8732 13.6712 21.612 13.711 21.3563C13.7507 21.1005 13.8419 20.8554 13.9791 20.6359C14.1163 20.4164 14.2966 20.2271 14.5091 20.0793C14.7216 19.9315 14.9619 19.8283 15.2154 19.7761C15.4689 19.7238 15.7304 19.7235 15.984 19.7753C16.2376 19.827 16.4781 19.9297 16.6909 20.077L31.7725 29.5086L46.854 20.077C47.0668 19.9297 47.3073 19.827 47.5609 19.7753C47.8145 19.7235 48.076 19.7238 48.3295 19.7761C48.583 19.8283 48.8233 19.9315 49.0358 20.0793C49.2483 20.2271 49.4286 20.4164 49.5658 20.6359C49.703 20.8554 49.7942 21.1005 49.8339 21.3563C49.8737 21.612 49.8611 21.8732 49.797 22.124C49.7329 22.3748 49.6185 22.6099 49.4609 22.8152C49.3032 23.0205 49.1056 23.1917 48.8799 23.3184Z" fill="#FBFBFB"/>
</svg>
