<svg width="46" height="46" viewBox="0 0 46 46" fill="none" xmlns="http://www.w3.org/2000/svg">
<path fill-rule="evenodd" clip-rule="evenodd" d="M37.3719 8.70853C37.8352 8.51351 38.3424 8.44625 38.8405 8.51375C39.3387 8.58124 39.8097 8.78103 40.2044 9.09231C40.5992 9.40359 40.9033 9.81499 41.0851 10.2837C41.2669 10.7524 41.3197 11.2612 41.2381 11.7573L36.9856 37.5517C36.5731 40.0398 33.8431 41.4667 31.5612 40.2273C29.6525 39.1904 26.8175 37.5929 24.2675 35.926C22.9925 35.0917 19.0869 32.4198 19.5669 30.5185C19.9794 28.8929 26.5419 22.7842 30.2919 19.1523C31.7638 17.7254 31.0925 16.9023 29.3544 18.2148C25.0381 21.4735 18.1081 26.4292 15.8169 27.8242C13.7956 29.0542 12.7419 29.2642 11.4819 29.0542C9.18312 28.6717 7.05125 28.0792 5.31125 27.3573C2.96 26.3823 3.07437 23.1498 5.30937 22.2085L37.3719 8.70853Z" fill="#FBFBFB"/>
</svg>
