<svg width="565" height="184" viewBox="0 0 565 184" fill="none" xmlns="http://www.w3.org/2000/svg">
<path d="M124.889 83.4744H122.489V85.8744L124.889 83.4744ZM191.489 87.0744V90.2744H188.289V93.4744H184.889V96.8744H181.689V100.074H178.289V103.474H175.089V113.274H172.489V116.474L175.889 119.674V126.274L179.489 130.074L196.889 112.474V109.274L203.489 102.674V90.0744L197.289 83.8744H194.689L191.489 87.0744ZM119.089 2.07436V4.47436H115.889V11.0744H112.689V19.8744L114.289 21.6744L115.289 20.6744V17.2744L121.689 10.6744V4.67436L119.089 2.07436ZM166.289 14.2744H168.489V12.0744L166.289 14.2744ZM169.489 11.0744H171.689V8.87435L169.489 11.0744ZM172.889 7.67436H175.089V5.47436L172.889 7.67436ZM204.689 14.4744V12.0744L202.289 14.4744H204.689ZM207.889 11.2744V8.87435L205.489 11.2744H207.889ZM115.889 4.47436V0.474356H119.489L123.089 4.27435V11.2744L116.489 17.8744V21.2744L115.289 22.4744L119.489 26.8744H135.289L141.889 20.2744H148.489L155.089 13.6744H165.089L174.689 3.87436H181.489V4.47436H181.689V7.67436H175.089V11.0744H171.689V14.2744H168.489V20.8744H165.289V24.2744H161.889V27.4744H158.689V30.8744H155.289V34.0744H152.089V37.2744H148.689V40.6744H145.489V47.2744H142.089V50.4744H138.889V57.0744H135.489V63.6744H132.289V70.2744H129.089V76.8744H125.689V82.4744L184.689 23.4744H188.089L197.889 13.6744H201.289L207.689 7.07435H214.489V4.67436H217.889V8.07435H214.489V11.2744H211.289V14.4744H207.889V17.8744H204.689V21.0744H201.289V24.4744H198.089V27.6744H194.889V31.0744H191.489V34.2744H188.289V37.6744H184.889V40.8744H181.689V47.4744H178.289V54.0744H175.089V57.2744H171.689V63.8744H168.489V67.2744H165.289V73.8744H161.889V77.0744H158.689V83.6744H155.289V90.2744H152.089V96.8744H148.689V103.474H145.489V113.274H142.089V123.074H145.489V129.674H148.689V132.074L155.089 138.474H167.689L174.289 131.874H177.689L178.489 130.874L174.489 126.874V120.274L171.089 117.074V100.274H171.689V100.074H175.089V96.8744H178.289V93.4744H181.689V90.2744H188.289V86.8744H189.689L194.089 82.4744H197.889L204.889 89.4744V103.274L198.289 109.874V113.074L180.489 130.874L182.489 132.874V136.274L185.289 139.074H188.089L191.289 135.874H194.689L207.689 122.674H214.689V124.074H208.289L195.089 137.074H191.889L188.689 140.474H184.689L181.089 136.674V133.474L179.489 131.874L178.089 133.274H174.889L168.289 139.874H154.489L147.689 133.074H145.489V129.674H142.089V126.474H138.889V103.474H142.089V93.4744H145.489V90.2744H148.689V83.6744H152.089V77.0744H155.289V70.4744H158.689V67.2744H161.889V60.6744H165.289V57.2744H168.489V50.6744H171.689V47.4744H175.089V40.8744H178.289V37.6744H181.689V34.2744H184.889V31.0744H188.289V27.6744H191.489V24.4744H194.889V21.0744H198.089V17.8744H201.289V15.0744H198.489L188.689 24.8744H185.289L122.489 87.8744V90.0744H120.289L119.089 91.0744V96.6744H115.889V99.8744H112.489V106.474H109.289V109.674H106.089V113.074H102.689V116.274H99.4895V119.674H96.0895V122.874H92.8895V126.274H89.4895V129.474H87.2895L76.8895 139.874L75.8895 138.874L86.2895 128.474V126.274H89.4895V122.874H92.8895V119.674H96.0895V113.074H99.4895V109.674H102.689V103.074H105.889V96.4744H109.289V90.0744H112.489V86.6744H115.889V80.0744H119.089V73.4744H122.489V67.0744H125.689V60.4744H129.089V57.0744H132.289V50.4744H135.489V47.2744H138.889V43.8744H142.089V37.2744H145.489V34.0744H148.689V30.8744H152.089V27.4744H155.289V24.2744H158.689V20.8744H161.889V17.6744H165.289V15.0744H162.289L152.489 24.8744H149.089L43.8895 130.274H40.4895L33.8895 136.674H30.6895L27.2895 140.074H10.2895L3.88948 133.474H0.0894775V116.074L4.08948 112.074V109.674H13.8895V116.274H7.28948V112.874H5.28948L1.48948 116.674V132.074H4.28948L10.8895 138.674H26.8895L30.0895 135.474H33.2895L39.8895 128.874H43.2895L148.489 23.4744H151.889L160.289 15.0744H155.689L149.089 21.6744H142.489L135.889 28.2744H118.889L114.289 23.4744L103.089 34.6744H99.6895L83.4895 51.0744L82.4895 50.0744L99.0895 33.4744H102.489L113.289 22.4744L111.689 20.8744H109.289V17.6744H106.089V11.0744H109.289V7.67436H112.689V4.47436H115.889ZM218.338 153.874H221.938V150.074H225.538V143.674H222.338L218.738 147.474H215.138L211.538 150.874H200.738L197.138 154.674H186.338L179.338 161.674H175.538L172.338 164.874V178.074H175.538L179.338 181.874H192.938L214.738 159.874V157.274H218.338V153.874ZM221.938 157.274H218.338V161.074H215.738L193.538 183.274H178.538L174.938 179.674H170.938V164.274L174.938 160.274H178.538L185.738 153.074H196.538L200.138 149.474H210.738L214.538 145.874H217.938L221.738 142.274H229.138V139.474H232.738V135.874H236.338V128.674H239.938V125.674H236.938L229.538 133.074H225.938L218.738 140.274H214.538L210.538 136.274V121.474H214.738V117.874H218.338V114.274H221.938V110.674H225.538V103.474H229.138V99.8744H232.738V96.2744H236.338V92.8744H239.938V89.0744H243.538V85.6744H247.138V81.8744H250.738V78.4744H254.338V74.8744H257.138V71.2744H258.738V81.8744H254.338V85.6744H250.738V89.0744H247.138V96.2744H243.538V99.8744H239.938V103.474H236.338V107.074H232.738V110.674H229.138V114.274H225.538V117.874H221.938V121.474H218.338V128.674H214.738V132.274H211.938V135.474L215.138 138.674H217.938L225.138 131.474H228.938L236.338 124.074H239.538L239.938 123.674V121.474H243.538V117.874H247.138V114.274H250.738V110.674H254.338V103.474H257.938V99.8744H261.338V96.2744H265.138V92.8744H268.538V89.0744H272.338V85.6744H275.738V81.8744H279.338V78.4744H282.938V74.8744H286.538V71.2744H293.738V74.8744H290.138V78.4744H286.538V81.8744H282.938V85.6744H279.338V89.0744H275.738V96.2744H272.338V99.8744H268.538V103.474H265.138V107.074H261.338V110.674H257.938V117.874H254.338V121.474H250.738V125.074H247.138V132.274H243.538V135.874H239.938V138.674H253.938L271.738 120.874H279.338V122.274H272.538L254.538 140.274H236.538L236.338 140.474V143.074H233.938L233.138 143.674H232.738V146.674H229.138V150.074H225.538V153.874H221.938V157.274ZM306.986 79.0744L314.586 71.4744H329.186V75.8744H332.786V86.4744H329.186V90.0744H325.586V94.2744H318.786L316.786 96.2744H321.986V100.674H325.586V111.274H321.986V114.874H318.586V118.474H314.986V121.874H311.386V125.474H304.386V129.074H301.386V135.474H304.586L308.186 139.074H314.586L332.586 121.074H339.786V122.674H333.186L315.186 140.474H307.586L303.986 136.874H299.986V132.674H293.586V136.074H291.186L286.786 140.474H275.586L271.586 136.474V121.874H279.386V129.074H272.986V135.874L276.186 139.074H286.186L290.186 135.074V132.674H293.586V129.074H297.186V125.474H299.986V122.074H300.786V121.874H304.386V118.474H307.786V114.874H311.386V111.274H314.986V107.674H318.586V97.8744H308.186L304.786 101.074L303.786 100.074L307.586 96.2744H314.586L318.186 92.6744H318.586V90.0744H321.986V86.4744H325.586V72.8744H315.186L308.586 79.6744V82.8744H306.986V79.0744ZM353.938 132.674H360.938V129.074H364.538V125.474H368.138V121.874H371.538V118.474H375.138V114.874H378.738V107.674H382.338V104.874H378.338L374.138 100.674L378.338 96.2744H380.538L378.338 94.2744H368.138V97.0744H364.538V100.674H360.938V104.274H357.338V107.674H353.938V111.274H350.338V118.474H346.738V121.874H343.138V129.074H339.738V135.074L343.538 138.874H350.138L353.938 135.074V132.674ZM378.938 97.8744L376.338 100.674L378.938 103.474H382.338V98.0744L381.938 97.8744H378.938ZM428.538 72.2744H435.538V75.8744H432.138V79.2744H428.538V82.8744H424.938V86.4744H421.338V90.0744H417.938V97.0744H414.138V100.674H410.738V104.274H407.138V107.674H403.538V111.274H399.938V114.874H396.538V118.474H392.938V121.874H389.338V129.074H385.738V132.674H383.138V135.474H386.138L389.738 139.074H396.338L413.938 121.074H421.338V122.674H414.538L396.938 140.474H389.138L385.538 136.874H381.538V122.074H382.338V121.874H385.738V118.474H389.338V114.874H392.938V111.274H396.538V104.274H399.938V100.674H403.538V97.0744H407.138V93.4744H410.738V90.0744H414.138V87.0744H411.138L393.338 104.874H389.338V111.274H385.738V114.874H382.338V118.474H378.738V121.874H375.138V125.474H371.538V129.074H368.138V132.674H360.938V136.074H354.938L350.538 140.474H342.938L338.738 136.074H336.138V121.874H339.738V114.874H343.138V107.674H346.738V104.274H350.338V100.674H353.938V97.0744H357.338V93.4744H360.938V90.0744H364.538V86.4744H368.138V82.8744H371.538V79.2744H378.738V75.8744H381.338L385.538 71.4744H393.338L397.338 75.4744V82.8744H392.938V75.8744H395.538L392.538 72.8744H386.138L382.338 76.8744V79.2744H378.738V82.8744H375.138V86.4744H371.538V90.0744H368.138V92.6744H378.938L382.538 96.2744H385.738V100.674H389.338V103.474H392.538L410.338 85.6744H417.738V86.4744H417.938V82.8744H421.338V79.2744H424.938V75.8744H428.538V72.2744ZM462.179 71.4744H468.979V74.8744H465.579V78.2744H462.179V85.0744H458.779V88.4744H455.379V95.2744H451.979V98.0744H458.379L464.779 91.6744V88.2744L478.979 74.2744H489.779L493.579 78.0744V88.4744H492.179V78.4744L489.179 75.6744H479.579L466.379 88.8744V92.2744L458.979 99.4744H456.979L459.779 102.274H462.179V112.474H458.779V115.874H455.379V119.274H451.979V126.074H448.579V132.874H445.779V135.674H448.779L452.179 139.074H458.579L475.579 121.874H482.779V123.274H476.179L459.179 140.474H451.579L448.179 137.074H444.379V119.274H448.579V115.874H451.979V112.474H455.379V105.674H458.779V103.274L455.179 99.4744H448.579V102.274H445.179V105.674H441.779V112.474H438.379V115.874H434.979V119.274H431.379V122.674H428.179V126.074H424.579V129.474H421.379V132.874H417.779V136.274H414.379V140.474H407.579V136.274H410.979V132.874H414.379V126.074H417.779V122.474H421.379V119.274H424.579V115.874H428.179V112.474H431.379V109.074H434.979V102.274H438.379V98.8744H441.779V95.2744H445.179V91.8744H448.579V85.0744H451.979V81.6744H455.379V78.2744H458.779V74.8744H462.179V71.4744ZM532.307 76.8744V79.4744H528.707V82.8744H525.307V86.4744H521.707V90.0744H518.107V93.6744H514.707V97.0744H511.107V100.674H507.507V104.274H503.907V107.874H500.507V111.274H496.907V114.874H493.307V121.874H489.707V129.074H486.307V135.274H486.707L490.107 138.874H496.507L507.307 128.074H510.707L514.107 124.874V122.074H518.307V118.474H521.907V111.474H525.507V107.874H528.907V104.274H532.507V100.874H536.107V97.2744H539.707V90.0744H543.107V86.6744H546.707V83.0744H549.307V79.6744L542.707 73.0744H536.307L532.307 76.8744ZM531.307 75.8744L535.507 71.4744H543.307L550.907 79.0744V79.4744H553.907V75.8744H557.307V72.2744H564.507V75.8744H560.907V79.4744H557.307V83.0744H553.907V86.6744H550.307V93.6744H546.707V100.874H543.107V104.274H539.707V107.874H536.107V111.474H532.507V114.874H528.907V118.474H525.507V125.674H521.907V129.074H518.307V135.474H518.507L522.107 139.074H528.707L546.507 121.074H553.907V122.674H547.107L529.307 140.474H521.507L517.907 136.874H514.107V127.074L511.307 129.674H507.907L497.107 140.474H489.507L485.907 136.874H482.707V121.874H486.307V114.874H489.707V107.874H493.307V104.274H496.907V100.674H500.507V97.0744H503.907V93.6744H507.507V90.0744H511.107V86.4744H518.107V82.8744H521.707V79.4744H528.707V75.8744H531.307Z" fill="#0736FE"/>
</svg>
